PathFileType	4	(X/Y/Z)	 normalP102.trc
DataRate	CameraRate	NumFrames	NumMarkers	Units	OrigDataRate	OrigDataStartFrame	OrigNumFrames
100	100	8	49	M	100	182	233
Frame#	Time	RM1D			RM5D			RM2B			LM1D			LM5D			LM2B			RCAL			LCAL			RLMAL			LLMAL			RSTL			LSTL			RFLE			LFLE			RHFIB			LHFIB			RTTUB			LTTUB			RSSH			LSSH			RTL			LTL			RTAP			RTAD			LTAP			LTAD			RTPP			RTPD			LTPP			LTPD			RPSIS			LPSIS			RASIS			LASIS			T10			T2			IJ			SA			RACR			LACR			RHLE			LHLE			RUSP			LUSP			RCB			LCB			IN			LHME			RHME			
		X1	Y1	Z1	X2	Y2	Z2	X3	Y3	Z3	X4	Y4	Z4	X5	Y5	Z5	X6	Y6	Z6	X7	Y7	Z7	X8	Y8	Z8	X9	Y9	Z9	X10	Y10	Z10	X11	Y11	Z11	X12	Y12	Z12	X13	Y13	Z13	X14	Y14	Z14	X15	Y15	Z15	X16	Y16	Z16	X17	Y17	Z17	X18	Y18	Z18	X19	Y19	Z19	X20	Y20	Z20	X21	Y21	Z21	X22	Y22	Z22	X23	Y23	Z23	X24	Y24	Z24	X25	Y25	Z25	X26	Y26	Z26	X27	Y27	Z27	X28	Y28	Z28	X29	Y29	Z29	X30	Y30	Z30	X31	Y31	Z31	X32	Y32	Z32	X33	Y33	Z33	X34	Y34	Z34	X35	Y35	Z35	X36	Y36	Z36	X37	Y37	Z37	X38	Y38	Z38	X39	Y39	Z39	X40	Y40	Z40	X41	Y41	Z41	X42	Y42	Z42	X43	Y43	Z43	X44	Y44	Z44	X45	Y45	Z45	X46	Y46	Z46	X47	Y47	Z47	X48	Y48	Z48	X49	Y49	Z49	
182	1.8200	1.012225	0.088092	-0.193336	0.966719	0.047561	-0.123126	0.952682	0.087644	-0.167654	0.255454	0.043424	-0.292607	0.217769	0.028262	-0.379527	0.222781	0.065935	-0.330529	0.811044	0.032223	-0.221261	0.059304	0.105277	-0.315815	0.843954	0.083095	-0.166243	0.126921	0.123285	-0.364942	0.868072	0.050521	-0.246015	0.110698	0.084946	-0.283377	0.742614	0.524963	-0.136420	0.367875	0.516375	-0.405017	0.730602	0.442552	-0.129202	0.320021	0.467116	-0.409086	0.800585	0.460597	-0.178523	0.367026	0.430602	-0.353141	0.821421	0.373287	-0.198080	0.237167	0.219118	-0.327860	0.665531	0.700594	-0.083828	0.426661	0.695028	-0.443747	0.716964	0.767563	-0.174914	0.742582	0.692904	-0.179779	0.548240	0.716549	-0.390054	0.502678	0.632932	-0.384312	0.556866	0.648674	-0.156594	0.608585	0.572969	-0.165773	0.341901	0.730655	-0.324385	0.323154	0.648196	-0.324738	0.426668	1.048861	-0.194184	0.414897	1.048580	-0.291730	0.616321	1.019694	-0.160431	0.592548	1.021501	-0.382237	0.432152	1.239497	-0.246831	0.439810	1.464169	-0.246362	0.594747	1.436130	-0.257407	0.613536	1.389966	-0.255152	0.514368	1.432003	-0.036139	0.512644	1.447903	-0.459338	0.488411	1.091917	0.017461	0.495348	1.107929	-0.539257	0.586242	0.841405	0.031333	0.648418	0.886663	-0.555235	0.649653	1.608705	-0.166993	0.652283	1.616795	-0.308398	0.479898	1.541043	-0.247286	0.489568	1.085469	-0.448098	0.470103	1.076435	-0.068976	
183	1.8300	1.024466	0.075940	-0.193756	0.972388	0.038295	-0.124394	0.960927	0.080815	-0.168484	0.255665	0.043343	-0.293017	0.218032	0.028248	-0.379711	0.225164	0.066829	-0.331643	0.816662	0.036920	-0.222371	0.063810	0.112633	-0.316091	0.851306	0.084303	-0.167244	0.130874	0.128660	-0.365955	0.875166	0.049528	-0.246166	0.114339	0.090858	-0.284462	0.757011	0.523812	-0.136075	0.382222	0.516167	-0.404676	0.743161	0.440842	-0.129913	0.332891	0.467538	-0.408636	0.814993	0.458721	-0.177873	0.380121	0.429412	-0.353402	0.834848	0.371471	-0.199958	0.244362	0.221299	-0.329193	0.682785	0.700887	-0.084381	0.441400	0.694377	-0.442767	0.734097	0.769025	-0.173861	0.759364	0.693634	-0.179171	0.563193	0.715448	-0.389401	0.517411	0.632014	-0.383396	0.574223	0.648634	-0.156178	0.624352	0.573211	-0.166118	0.357116	0.730478	-0.322882	0.338582	0.647940	-0.323132	0.442153	1.048614	-0.192855	0.430843	1.048074	-0.290652	0.632121	1.020120	-0.159341	0.608552	1.020458	-0.381104	0.447839	1.238504	-0.245199	0.453985	1.463454	-0.244522	0.609392	1.435574	-0.255816	0.628282	1.389546	-0.253523	0.529359	1.431327	-0.034421	0.527018	1.447334	-0.457677	0.503172	1.091267	0.018505	0.508106	1.107515	-0.537246	0.600074	0.840372	0.032561	0.659263	0.884953	-0.554172	0.664082	1.608308	-0.165610	0.666376	1.616089	-0.307117	0.493904	1.540266	-0.245469	0.502697	1.085189	-0.446024	0.485007	1.076031	-0.068079	
184	1.8400	1.030027	0.067208	-0.194910	0.978864	0.033606	-0.124790	0.972712	0.074020	-0.170534	0.256015	0.043331	-0.293505	0.218142	0.028060	-0.379537	0.227397	0.067354	-0.332357	0.819697	0.039051	-0.218992	0.069208	0.120896	-0.317079	0.863081	0.086443	-0.164648	0.135127	0.134773	-0.366387	0.878476	0.048978	-0.245321	0.119606	0.097595	-0.285486	0.770938	0.522953	-0.135599	0.397652	0.515845	-0.404055	0.754419	0.440668	-0.129854	0.346721	0.468033	-0.408038	0.828768	0.459105	-0.177381	0.394126	0.427892	-0.353773	0.847373	0.371688	-0.200555	0.252150	0.223808	-0.331058	0.698309	0.701326	-0.085103	0.456842	0.693771	-0.441676	0.751373	0.770047	-0.172093	0.776315	0.693968	-0.178059	0.578892	0.714361	-0.388840	0.532028	0.631424	-0.381955	0.590897	0.651105	-0.157211	0.638251	0.574960	-0.166494	0.372834	0.730026	-0.321238	0.354791	0.647414	-0.321411	0.458036	1.049081	-0.191724	0.447176	1.048077	-0.289519	0.648202	1.020957	-0.158079	0.624721	1.019696	-0.379891	0.463596	1.238679	-0.243542	0.468786	1.463808	-0.242602	0.624230	1.435909	-0.254176	0.643169	1.390125	-0.251867	0.544515	1.431027	-0.032464	0.541350	1.447162	-0.456111	0.518066	1.090812	0.019534	0.520775	1.107275	-0.535059	0.613976	0.839603	0.033764	0.669829	0.883386	-0.553059	0.678500	1.608781	-0.164158	0.680692	1.616172	-0.305765	0.508072	1.540261	-0.243519	0.515782	1.085112	-0.443906	0.500159	1.075812	-0.067010	
185	1.8500	1.034986	0.056616	-0.199577	0.982566	0.028568	-0.126994	0.977145	0.068710	-0.173827	0.256945	0.043556	-0.294047	0.218942	0.028403	-0.379989	0.230545	0.068238	-0.333680	0.821995	0.042151	-0.217701	0.075886	0.130080	-0.317825	0.870460	0.085015	-0.163930	0.141170	0.141396	-0.367464	0.880841	0.048249	-0.245699	0.125312	0.104821	-0.286521	0.784793	0.523900	-0.134278	0.414650	0.515225	-0.403500	0.767481	0.443005	-0.128918	0.362113	0.468509	-0.407520	0.842800	0.460796	-0.179021	0.409710	0.426132	-0.353643	0.858321	0.372574	-0.202080	0.261291	0.226388	-0.332323	0.712164	0.702254	-0.084695	0.473467	0.693066	-0.440421	0.768907	0.770441	-0.169378	0.793217	0.694254	-0.176235	0.595221	0.713530	-0.388162	0.548576	0.630503	-0.381272	0.604047	0.654276	-0.157561	0.651102	0.577899	-0.166856	0.389275	0.729385	-0.319497	0.371975	0.646451	-0.319582	0.474007	1.050518	-0.190851	0.463604	1.048930	-0.288423	0.664251	1.022129	-0.156676	0.640661	1.019394	-0.378870	0.479186	1.239281	-0.242557	0.483617	1.464593	-0.240801	0.639031	1.437437	-0.252488	0.658270	1.391720	-0.250196	0.559657	1.431211	-0.030493	0.555627	1.447531	-0.454420	0.533232	1.090736	0.020550	0.533374	1.107411	-0.532679	0.627975	0.839290	0.034916	0.679903	0.882177	-0.551921	0.693274	1.610198	-0.162681	0.695162	1.617493	-0.304253	0.522680	1.541322	-0.241637	0.528886	1.085338	-0.441678	0.515350	1.075848	-0.065946	
186	1.8600	1.036296	0.047972	-0.205424	0.984351	0.027733	-0.126061	0.979284	0.064152	-0.174829	0.258537	0.043864	-0.294477	0.219980	0.028869	-0.380224	0.234367	0.069198	-0.334671	0.823580	0.042735	-0.217174	0.084092	0.139897	-0.317762	0.872535	0.084461	-0.164586	0.148343	0.148545	-0.368228	0.881706	0.047612	-0.245898	0.132521	0.112539	-0.287158	0.799190	0.527616	-0.133796	0.433343	0.514257	-0.403258	0.784133	0.447637	-0.127858	0.379442	0.468759	-0.407321	0.856779	0.462056	-0.181904	0.426999	0.424217	-0.353460	0.868252	0.373166	-0.204217	0.271669	0.229140	-0.333606	0.725702	0.703403	-0.083745	0.490091	0.692424	-0.438553	0.786222	0.770782	-0.165828	0.809485	0.695419	-0.173316	0.612519	0.713461	-0.387287	0.566617	0.629982	-0.380593	0.616007	0.658015	-0.158436	0.663967	0.581110	-0.167041	0.406221	0.728263	-0.317684	0.390174	0.645130	-0.317701	0.490148	1.052821	-0.190003	0.479952	1.050183	-0.287924	0.680396	1.024161	-0.155685	0.656428	1.019540	-0.377774	0.494702	1.240240	-0.242080	0.498484	1.465369	-0.239063	0.653889	1.439498	-0.250753	0.673538	1.393671	-0.248530	0.574683	1.431956	-0.028696	0.569942	1.448587	-0.452654	0.548660	1.091425	0.021614	0.545908	1.108309	-0.530109	0.642070	0.839624	0.036081	0.689534	0.881535	-0.550732	0.708010	1.612272	-0.161234	0.709626	1.619451	-0.302690	0.537635	1.543143	-0.239754	0.542163	1.086166	-0.439263	0.529663	1.076584	-0.065474	
187	1.8700	1.039532	0.045219	-0.206093	0.986453	0.028105	-0.126122	0.982182	0.063208	-0.176096	0.258732	0.043213	-0.294709	0.220995	0.029558	-0.379231	0.239184	0.070265	-0.335429	0.825330	0.043918	-0.216706	0.093837	0.150278	-0.317442	0.875206	0.084816	-0.165418	0.157053	0.156184	-0.368678	0.883683	0.047025	-0.246436	0.141405	0.120916	-0.287464	0.815271	0.532666	-0.135098	0.453099	0.512872	-0.403895	0.801775	0.451597	-0.128031	0.398319	0.468902	-0.407924	0.869123	0.462624	-0.184343	0.445691	0.422069	-0.354264	0.878228	0.373286	-0.206091	0.283673	0.232131	-0.335138	0.739877	0.704737	-0.082888	0.508203	0.691590	-0.436931	0.803105	0.772184	-0.161458	0.824093	0.697692	-0.170091	0.630648	0.713736	-0.386045	0.587006	0.629503	-0.380536	0.628581	0.661721	-0.158257	0.677264	0.583910	-0.165813	0.424365	0.726742	-0.315592	0.409570	0.643324	-0.315672	0.506102	1.055658	-0.189590	0.496202	1.051684	-0.287709	0.696525	1.026556	-0.154828	0.672245	1.019953	-0.376531	0.510251	1.241437	-0.241387	0.513195	1.466435	-0.237240	0.668917	1.441354	-0.249041	0.688805	1.395687	-0.246861	0.589782	1.433284	-0.027070	0.584463	1.450311	-0.450891	0.564272	1.092786	0.022680	0.558299	1.110059	-0.527445	0.656367	0.840626	0.037258	0.698755	0.881497	-0.549495	0.722739	1.614198	-0.159799	0.724071	1.621210	-0.301199	0.552386	1.544997	-0.237828	0.555761	1.087884	-0.436636	0.545529	1.077908	-0.064391	
188	1.8800	1.041797	0.044039	-0.204042	0.986844	0.027475	-0.125071	0.984422	0.062472	-0.176601	0.260719	0.043490	-0.295081	0.222113	0.030833	-0.378913	0.243936	0.070924	-0.336079	0.825443	0.045880	-0.216729	0.105921	0.161698	-0.316493	0.878578	0.085294	-0.165262	0.167238	0.164243	-0.369065	0.884495	0.046808	-0.246636	0.151954	0.129970	-0.287416	0.832145	0.536430	-0.137022	0.474885	0.511050	-0.404794	0.817644	0.453579	-0.128315	0.418724	0.468435	-0.408585	0.881381	0.463390	-0.186447	0.465699	0.419726	-0.356286	0.887683	0.372825	-0.207408	0.297252	0.235194	-0.336774	0.753913	0.706914	-0.082043	0.527058	0.690691	-0.435563	0.818266	0.774400	-0.156762	0.837551	0.700564	-0.168168	0.649334	0.714106	-0.384552	0.607645	0.629172	-0.379655	0.640950	0.664561	-0.154308	0.692134	0.586156	-0.163525	0.443760	0.724568	-0.313427	0.430197	0.640729	-0.313740	0.521618	1.058670	-0.189388	0.512167	1.053522	-0.287492	0.712289	1.029470	-0.153840	0.688399	1.020705	-0.375101	0.525717	1.242856	-0.240660	0.527925	1.467697	-0.235648	0.683935	1.443268	-0.247395	0.703965	1.397845	-0.245163	0.604903	1.435083	-0.025579	0.599235	1.452503	-0.449292	0.579871	1.094694	0.023704	0.570492	1.112426	-0.524688	0.670875	0.842111	0.038506	0.707660	0.881954	-0.548202	0.737329	1.616011	-0.158378	0.738496	1.622623	-0.299836	0.566772	1.546447	-0.236027	0.569285	1.090502	-0.433897	0.561239	1.079976	-0.063598	
189	1.8900	1.041975	0.042437	-0.207102	0.987463	0.027737	-0.125393	0.984820	0.062042	-0.176934	0.263413	0.044019	-0.295608	0.222705	0.032525	-0.378432	0.248847	0.071489	-0.336671	0.825701	0.045731	-0.216119	0.120155	0.173566	-0.315229	0.879814	0.085222	-0.165404	0.179712	0.172351	-0.369250	0.884787	0.046586	-0.246259	0.164348	0.139310	-0.287312	0.847781	0.537759	-0.138209	0.498111	0.509062	-0.406104	0.830567	0.454886	-0.127895	0.440480	0.467850	-0.409522	0.892526	0.464064	-0.188407	0.486703	0.417423	-0.359003	0.896354	0.372558	-0.207901	0.312243	0.238471	-0.338789	0.766790	0.710045	-0.081678	0.546696	0.689621	-0.434456	0.832087	0.776965	-0.153163	0.851372	0.703364	-0.168565	0.670070	0.715360	-0.382165	0.628148	0.628975	-0.378295	0.655659	0.667494	-0.150503	0.707451	0.589146	-0.160307	0.464004	0.721523	-0.311334	0.451997	0.637356	-0.312060	0.536802	1.061823	-0.189159	0.527628	1.055597	-0.287246	0.727756	1.032710	-0.152568	0.704931	1.022162	-0.373360	0.540772	1.244786	-0.240099	0.542611	1.469471	-0.234288	0.698722	1.445689	-0.245862	0.718979	1.400399	-0.243582	0.620008	1.437171	-0.024137	0.613997	1.455106	-0.447873	0.595524	1.096969	0.024784	0.582559	1.115206	-0.521945	0.685615	0.844053	0.039821	0.716257	0.882761	-0.546864	0.751978	1.617888	-0.156998	0.752866	1.624307	-0.298524	0.580932	1.547887	-0.234477	0.582842	1.093807	-0.431019	0.576938	1.082624	-0.062733	
